<svg xmlns="http://www.w3.org/2000/svg" xmlns:xlink="http://www.w3.org/1999/xlink" version="1.2" width="210.00mm" height="297.00mm" viewBox="0 0 119.5016 169.0094">
<style type="text/css">
<![CDATA[
tspan { white-space: pre; }
]]>
</style>
<!-- Page: 1/1 -->
<g transform="translate(5.6906, 10.6243)">
<rect x="88.4279" y="-0.1000" width="2.0660" height="0.2000" ry="0.1000" fill="currentColor"/>
</g>
<g transform="translate(5.6906, 10.6243)">
<rect x="85.2720" y="-0.1000" width="1.9563" height="0.2000" ry="0.1000" fill="currentColor"/>
</g>
<g transform="translate(5.6906, 10.6243)">
<rect x="82.2697" y="-0.1000" width="1.9563" height="0.2000" ry="0.1000" fill="currentColor"/>
</g>
<g transform="translate(5.6906, 10.6243)">
<rect x="76.6360" y="-0.1000" width="2.0660" height="0.2000" ry="0.1000" fill="currentColor"/>
</g>
<g transform="translate(5.6906, 10.6243)">
<rect x="73.6521" y="-0.1000" width="1.9563" height="0.2000" ry="0.1000" fill="currentColor"/>
</g>
<g transform="translate(5.6906, 10.6243)">
<rect x="70.6498" y="-0.1000" width="1.9563" height="0.2000" ry="0.1000" fill="currentColor"/>
</g>
<g transform="translate(5.6906, 10.6243)">
<rect x="66.3076" y="-0.1000" width="1.9563" height="0.2000" ry="0.1000" fill="currentColor"/>
</g>
<g transform="translate(5.6906, 10.6243)">
<rect x="63.3053" y="-0.1000" width="1.9563" height="0.2000" ry="0.1000" fill="currentColor"/>
</g>
<g transform="translate(5.6906, 10.6243)">
<rect x="60.1311" y="-0.1000" width="1.9563" height="0.2000" ry="0.1000" fill="currentColor"/>
</g>
<g transform="translate(5.6906, 10.6243)">
<rect x="57.1288" y="-0.1000" width="1.9563" height="0.2000" ry="0.1000" fill="currentColor"/>
</g>
<g transform="translate(5.6906, 10.6243)">
<rect x="52.7866" y="-0.1000" width="1.9563" height="0.2000" ry="0.1000" fill="currentColor"/>
</g>
<g transform="translate(5.6906, 10.6243)">
<rect x="49.7843" y="-0.1000" width="1.9563" height="0.2000" ry="0.1000" fill="currentColor"/>
</g>
<g transform="translate(5.6906, 10.6243)">
<rect x="46.7820" y="-0.1000" width="1.9563" height="0.2000" ry="0.1000" fill="currentColor"/>
</g>
<g transform="translate(5.6906, 10.6243)">
<rect x="43.7798" y="-0.1000" width="1.9563" height="0.2000" ry="0.1000" fill="currentColor"/>
</g>
<g transform="translate(5.6906, 10.6243)">
<rect x="39.4375" y="-0.1000" width="1.9563" height="0.2000" ry="0.1000" fill="currentColor"/>
</g>
<g transform="translate(5.6906, 10.6243)">
<rect x="36.4353" y="-0.1000" width="1.9563" height="0.2000" ry="0.1000" fill="currentColor"/>
</g>
<g transform="translate(5.6906, 10.6243)">
<rect x="33.2611" y="-0.1000" width="1.9563" height="0.2000" ry="0.1000" fill="currentColor"/>
</g>
<g transform="translate(5.6906, 10.6243)">
<rect x="30.2588" y="-0.1000" width="1.9563" height="0.2000" ry="0.1000" fill="currentColor"/>
</g>
<g transform="translate(5.6906, 10.6243)">
<rect x="25.9165" y="-0.1000" width="1.9563" height="0.2000" ry="0.1000" fill="currentColor"/>
</g>
<g transform="translate(5.6906, 10.6243)">
<rect x="22.9143" y="-0.1000" width="1.9563" height="0.2000" ry="0.1000" fill="currentColor"/>
</g>
<g transform="translate(5.6906, 10.6243)">
<rect x="19.9120" y="-0.1000" width="1.9563" height="0.2000" ry="0.1000" fill="currentColor"/>
</g>
<g transform="translate(5.6906, 10.6243)">
<rect x="16.9098" y="-0.1000" width="1.9563" height="0.2000" ry="0.1000" fill="currentColor"/>
</g>
<g transform="translate(14.2264, 9.6243)">
<line stroke-linejoin="round" stroke-linecap="round" stroke-width="0.1000" stroke="currentColor" x1="0.0500" y1="0" x2="86.3018" y2="0"/>
</g>
<g transform="translate(14.2264, 8.6243)">
<line stroke-linejoin="round" stroke-linecap="round" stroke-width="0.1000" stroke="currentColor" x1="0.0500" y1="0" x2="86.3018" y2="0"/>
</g>
<g transform="translate(14.2264, 7.6243)">
<line stroke-linejoin="round" stroke-linecap="round" stroke-width="0.1000" stroke="currentColor" x1="0.0500" y1="0" x2="86.3018" y2="0"/>
</g>
<g transform="translate(14.2264, 6.6243)">
<line stroke-linejoin="round" stroke-linecap="round" stroke-width="0.1000" stroke="currentColor" x1="0.0500" y1="0" x2="86.3018" y2="0"/>
</g>
<g transform="translate(14.2264, 5.6243)">
<line stroke-linejoin="round" stroke-linecap="round" stroke-width="0.1000" stroke="currentColor" x1="0.0500" y1="0" x2="86.3018" y2="0"/>
</g>
<g transform="translate(35.1854, 7.6243)">
<rect x="0.0000" y="-2.0000" width="0.1900" height="4.0000" ry="0.0000" fill="currentColor"/>
</g>
<g transform="translate(98.7382, 7.1243)">
<path transform="scale(0.0040, -0.0040)" d="M0 0c0 31 25 56 56 56s56 -25 56 -56s-25 -56 -56 -56s-56 25 -56 56z" fill="currentColor"/>
</g>
<g transform="translate(98.7382, 8.1243)">
<path transform="scale(0.0040, -0.0040)" d="M0 0c0 31 25 56 56 56s56 -25 56 -56s-25 -56 -56 -56s-56 25 -56 56z" fill="currentColor"/>
</g>
<g transform="translate(99.9782, 7.6243)">
<rect x="0.0000" y="-2.0000" width="0.6000" height="4.0000" ry="0.0000" fill="currentColor"/>
</g>
<g transform="translate(99.4882, 7.6243)">
<rect x="0.0000" y="-2.0000" width="0.1900" height="4.0000" ry="0.0000" fill="currentColor"/>
</g>
<g transform="translate(87.1963, 7.6243)">
<rect x="0.0000" y="-2.0000" width="0.1900" height="4.0000" ry="0.0000" fill="currentColor"/>
</g>
<g transform="translate(75.5764, 7.6243)">
<rect x="0.0000" y="-2.0000" width="0.1900" height="4.0000" ry="0.0000" fill="currentColor"/>
</g>
<g transform="translate(62.0554, 7.6243)">
<rect x="0.0000" y="-2.0000" width="0.1900" height="4.0000" ry="0.0000" fill="currentColor"/>
</g>
<g transform="translate(48.7064, 7.6243)">
<rect x="0.0000" y="-2.0000" width="0.1900" height="4.0000" ry="0.0000" fill="currentColor"/>
</g>
<a style="color:inherit;" xlink:href="textedit:///Users/landlessness/Documents/git/homeymusic/journal/a_field_theory_of_musical_harmony/_music%20engravings/0_3_4_12.ly:8:7:8">
<g transform="translate(22.9264, 10.6243)">
<path transform="scale(0.0040, -0.0040)" d="M218 136c66 0 108 -36 108 -89c0 -89 -113 -183 -218 -183c-66 0 -108 36 -108 89c0 89 113 183 218 183z" fill="currentColor"/>
</g>
</a>
<a style="color:inherit;" xlink:href="textedit:///Users/landlessness/Documents/git/homeymusic/journal/a_field_theory_of_musical_harmony/_music%20engravings/0_3_4_12.ly:8:10:11">
<g transform="translate(22.9264, 7.1243)">
<path transform="scale(0.0040, -0.0040)" d="M218 136c66 0 108 -36 108 -89c0 -89 -113 -183 -218 -183c-66 0 -108 36 -108 89c0 89 113 183 218 183z" fill="currentColor"/>
</g>
</a>
<g transform="translate(15.0264, 8.6243)">
<path transform="scale(0.0040, -0.0040)" d="M266 -635h-6c-108 0 -195 88 -195 197c0 58 53 103 112 103c54 0 95 -47 95 -103c0 -52 -43 -95 -95 -95c-11 0 -21 2 -31 6c26 -39 68 -65 117 -65h4zM461 -203c68 24 113 90 113 164c0 90 -66 179 -173 190c19 -89 48 -242 60 -354zM74 28c0 -145 141 -247 264 -247
c1 0 47 0 82 6c-7 64 -29 203 -63 364c-79 -8 -124 -61 -124 -119c0 -44 25 -91 81 -123c5 -5 7 -10 7 -15c0 -11 -10 -22 -22 -22c-15 0 -126 62 -126 187c0 88 58 174 160 197c-14 58 -29 117 -46 175c-107 -121 -213 -243 -213 -403zM250 553c-29 96 -52 170 -52 346
c0 115 55 224 149 292c6 5 14 5 20 0c68 -80 133 -245 133 -358c0 -143 -86 -255 -180 -364c21 -68 39 -138 56 -207c2 0 7 1 13 1c155 0 256 -128 256 -261c0 -113 -74 -212 -180 -246c3 -35 5 -70 5 -105c0 -19 -1 -39 -2 -58c-7 -119 -88 -225 -202 -228l1 43
c93 2 153 92 159 191c1 18 2 37 2 55c0 31 -1 61 -4 92c-5 -1 -44 -8 -89 -8c-193 0 -333 180 -333 374c0 177 131 306 248 441zM428 916c0 34 1 66 -20 129c-99 -48 -162 -149 -162 -259c0 -52 12 -115 36 -194c80 97 146 198 146 324z" fill="currentColor"/>
</g>
<g transform="translate(19.2264, 7.6243)">
<path transform="scale(0.0040, -0.0040)" d="M250 262c116 0 176 -106 176 -163c0 -40 -30 -72 -67 -72c-31 0 -75 25 -75 75c0 38 27 77 72 77c4 0 9 0 14 -1c-28 37 -72 59 -120 59c-106 0 -113 -73 -113 -186v-51v-51c0 -113 7 -187 113 -187c80 0 139 70 158 151c2 7 7 10 12 10c6 0 13 -4 13 -12
c0 -22 -50 -174 -183 -174c-59 0 -250 19 -250 263c0 62 18 262 250 262z" fill="currentColor"/>
</g>
<g transform="translate(24.1656, 7.6243)">
<rect x="-0.0650" y="-3.6667" width="0.1300" height="6.4806" ry="0.0400" fill="currentColor"/>
</g>
<g transform="translate(46.6933, 7.6243)">
<rect x="-0.0650" y="-3.6667" width="0.1300" height="6.4806" ry="0.0400" fill="currentColor"/>
</g>
<a style="color:inherit;" xlink:href="textedit:///Users/landlessness/Documents/git/homeymusic/journal/a_field_theory_of_musical_harmony/_music%20engravings/0_3_4_12.ly:18:7:8">
<g transform="translate(49.7964, 10.6243)">
<path transform="scale(0.0040, -0.0040)" d="M218 136c66 0 108 -36 108 -89c0 -89 -113 -183 -218 -183c-66 0 -108 36 -108 89c0 89 113 183 218 183z" fill="currentColor"/>
</g>
</a>
<a style="color:inherit;" xlink:href="textedit:///Users/landlessness/Documents/git/homeymusic/journal/a_field_theory_of_musical_harmony/_music%20engravings/0_3_4_12.ly:18:10:11">
<g transform="translate(49.7964, 7.1243)">
<path transform="scale(0.0040, -0.0040)" d="M218 136c66 0 108 -36 108 -89c0 -89 -113 -183 -218 -183c-66 0 -108 36 -108 89c0 89 113 183 218 183z" fill="currentColor"/>
</g>
</a>
<g transform="translate(51.0356, 7.6243)">
<rect x="-0.0650" y="-3.6667" width="0.1300" height="6.4806" ry="0.0400" fill="currentColor"/>
</g>
<a style="color:inherit;" xlink:href="textedit:///Users/landlessness/Documents/git/homeymusic/journal/a_field_theory_of_musical_harmony/_music%20engravings/0_3_4_12.ly:16:14:15">
<g transform="translate(45.4541, 7.1243)">
<path transform="scale(0.0040, -0.0040)" d="M218 136c66 0 108 -36 108 -89c0 -89 -113 -183 -218 -183c-66 0 -108 36 -108 89c0 89 113 183 218 183z" fill="currentColor"/>
</g>
</a>
<a style="color:inherit;" xlink:href="textedit:///Users/landlessness/Documents/git/homeymusic/journal/a_field_theory_of_musical_harmony/_music%20engravings/0_3_4_12.ly:16:10:11">
<g transform="translate(45.4541, 9.6243)">
<path transform="scale(0.0040, -0.0040)" d="M218 136c66 0 108 -36 108 -89c0 -89 -113 -183 -218 -183c-66 0 -108 36 -108 89c0 89 113 183 218 183z" fill="currentColor"/>
</g>
</a>
<a style="color:inherit;" xlink:href="textedit:///Users/landlessness/Documents/git/homeymusic/journal/a_field_theory_of_musical_harmony/_music%20engravings/0_3_4_12.ly:19:7:8">
<g transform="translate(52.7986, 10.6243)">
<path transform="scale(0.0040, -0.0040)" d="M218 136c66 0 108 -36 108 -89c0 -89 -113 -183 -218 -183c-66 0 -108 36 -108 89c0 89 113 183 218 183z" fill="currentColor"/>
</g>
</a>
<a style="color:inherit;" xlink:href="textedit:///Users/landlessness/Documents/git/homeymusic/journal/a_field_theory_of_musical_harmony/_music%20engravings/0_3_4_12.ly:19:10:11">
<g transform="translate(52.7986, 7.1243)">
<path transform="scale(0.0040, -0.0040)" d="M218 136c66 0 108 -36 108 -89c0 -89 -113 -183 -218 -183c-66 0 -108 36 -108 89c0 89 113 183 218 183z" fill="currentColor"/>
</g>
</a>
<g transform="translate(54.0379, 7.6243)">
<rect x="-0.0650" y="-3.6667" width="0.1300" height="6.4806" ry="0.0400" fill="currentColor"/>
</g>
<a style="color:inherit;" xlink:href="textedit:///Users/landlessness/Documents/git/homeymusic/journal/a_field_theory_of_musical_harmony/_music%20engravings/0_3_4_12.ly:16:7:8">
<g transform="translate(45.4541, 10.6243)">
<path transform="scale(0.0040, -0.0040)" d="M218 136c66 0 108 -36 108 -89c0 -89 -113 -183 -218 -183c-66 0 -108 36 -108 89c0 89 113 183 218 183z" fill="currentColor"/>
</g>
</a>
<a style="color:inherit;" xlink:href="textedit:///Users/landlessness/Documents/git/homeymusic/journal/a_field_theory_of_musical_harmony/_music%20engravings/0_3_4_12.ly:20:7:8">
<g transform="translate(55.8009, 10.6243)">
<path transform="scale(0.0040, -0.0040)" d="M218 136c66 0 108 -36 108 -89c0 -89 -113 -183 -218 -183c-66 0 -108 36 -108 89c0 89 113 183 218 183z" fill="currentColor"/>
</g>
</a>
<a style="color:inherit;" xlink:href="textedit:///Users/landlessness/Documents/git/homeymusic/journal/a_field_theory_of_musical_harmony/_music%20engravings/0_3_4_12.ly:20:10:11">
<g transform="translate(55.8009, 9.6243)">
<path transform="scale(0.0040, -0.0040)" d="M218 136c66 0 108 -36 108 -89c0 -89 -113 -183 -218 -183c-66 0 -108 36 -108 89c0 89 113 183 218 183z" fill="currentColor"/>
</g>
</a>
<a style="color:inherit;" xlink:href="textedit:///Users/landlessness/Documents/git/homeymusic/journal/a_field_theory_of_musical_harmony/_music%20engravings/0_3_4_12.ly:20:13:14">
<g transform="translate(55.8009, 7.1243)">
<path transform="scale(0.0040, -0.0040)" d="M218 136c66 0 108 -36 108 -89c0 -89 -113 -183 -218 -183c-66 0 -108 36 -108 89c0 89 113 183 218 183z" fill="currentColor"/>
</g>
</a>
<g transform="translate(57.0401, 7.6243)">
<rect x="-0.0650" y="-3.6667" width="0.1300" height="6.4806" ry="0.0400" fill="currentColor"/>
</g>
<g transform="translate(41.3019, 9.6243)">
<path transform="scale(0.0040, -0.0040)" d="M27 41l-1 -66v-11c0 -22 1 -44 4 -66c45 38 93 80 93 139c0 33 -14 67 -43 67c-31 0 -52 -30 -53 -63zM-15 -138l-12 595c8 5 18 8 27 8s19 -3 27 -8l-7 -345c25 21 58 34 91 34c52 0 89 -48 89 -102c0 -80 -86 -117 -147 -169c-15 -13 -24 -38 -45 -38
c-13 0 -23 11 -23 25z" fill="currentColor"/>
</g>
<a style="color:inherit;" xlink:href="textedit:///Users/landlessness/Documents/git/homeymusic/journal/a_field_theory_of_musical_harmony/_music%20engravings/0_3_4_12.ly:21:7:8">
<g transform="translate(58.8032, 10.6243)">
<path transform="scale(0.0040, -0.0040)" d="M218 136c66 0 108 -36 108 -89c0 -89 -113 -183 -218 -183c-66 0 -108 36 -108 89c0 89 113 183 218 183z" fill="currentColor"/>
</g>
</a>
<a style="color:inherit;" xlink:href="textedit:///Users/landlessness/Documents/git/homeymusic/journal/a_field_theory_of_musical_harmony/_music%20engravings/0_3_4_12.ly:21:10:11">
<g transform="translate(58.8032, 9.6243)">
<path transform="scale(0.0040, -0.0040)" d="M218 136c66 0 108 -36 108 -89c0 -89 -113 -183 -218 -183c-66 0 -108 36 -108 89c0 89 113 183 218 183z" fill="currentColor"/>
</g>
</a>
<a style="color:inherit;" xlink:href="textedit:///Users/landlessness/Documents/git/homeymusic/journal/a_field_theory_of_musical_harmony/_music%20engravings/0_3_4_12.ly:21:13:14">
<g transform="translate(58.8032, 7.1243)">
<path transform="scale(0.0040, -0.0040)" d="M218 136c66 0 108 -36 108 -89c0 -89 -113 -183 -218 -183c-66 0 -108 36 -108 89c0 89 113 183 218 183z" fill="currentColor"/>
</g>
</a>
<g transform="translate(60.0424, 7.6243)">
<rect x="-0.0650" y="-3.6667" width="0.1300" height="6.4806" ry="0.0400" fill="currentColor"/>
</g>
<a style="color:inherit;" xlink:href="textedit:///Users/landlessness/Documents/git/homeymusic/journal/a_field_theory_of_musical_harmony/_music%20engravings/0_3_4_12.ly:23:7:8">
<g transform="translate(63.1454, 10.6243)">
<path transform="scale(0.0040, -0.0040)" d="M218 136c66 0 108 -36 108 -89c0 -89 -113 -183 -218 -183c-66 0 -108 36 -108 89c0 89 113 183 218 183z" fill="currentColor"/>
</g>
</a>
<a style="color:inherit;" xlink:href="textedit:///Users/landlessness/Documents/git/homeymusic/journal/a_field_theory_of_musical_harmony/_music%20engravings/0_3_4_12.ly:23:10:11">
<g transform="translate(63.1454, 7.1243)">
<path transform="scale(0.0040, -0.0040)" d="M218 136c66 0 108 -36 108 -89c0 -89 -113 -183 -218 -183c-66 0 -108 36 -108 89c0 89 113 183 218 183z" fill="currentColor"/>
</g>
</a>
<g transform="translate(64.3846, 7.6243)">
<rect x="-0.0650" y="-3.6667" width="0.1300" height="6.4806" ry="0.0400" fill="currentColor"/>
</g>
<a style="color:inherit;" xlink:href="textedit:///Users/landlessness/Documents/git/homeymusic/journal/a_field_theory_of_musical_harmony/_music%20engravings/0_3_4_12.ly:24:7:8">
<g transform="translate(66.1477, 10.6243)">
<path transform="scale(0.0040, -0.0040)" d="M218 136c66 0 108 -36 108 -89c0 -89 -113 -183 -218 -183c-66 0 -108 36 -108 89c0 89 113 183 218 183z" fill="currentColor"/>
</g>
</a>
<a style="color:inherit;" xlink:href="textedit:///Users/landlessness/Documents/git/homeymusic/journal/a_field_theory_of_musical_harmony/_music%20engravings/0_3_4_12.ly:24:10:11">
<g transform="translate(66.1477, 7.1243)">
<path transform="scale(0.0040, -0.0040)" d="M218 136c66 0 108 -36 108 -89c0 -89 -113 -183 -218 -183c-66 0 -108 36 -108 89c0 89 113 183 218 183z" fill="currentColor"/>
</g>
</a>
<g transform="translate(67.3869, 7.6243)">
<rect x="-0.0650" y="-3.6667" width="0.1300" height="6.4806" ry="0.0400" fill="currentColor"/>
</g>
<g transform="translate(43.6911, 7.6243)">
<rect x="-0.0650" y="-3.6667" width="0.1300" height="6.4806" ry="0.0400" fill="currentColor"/>
</g>
<a style="color:inherit;" xlink:href="textedit:///Users/landlessness/Documents/git/homeymusic/journal/a_field_theory_of_musical_harmony/_music%20engravings/0_3_4_12.ly:25:7:8">
<g transform="translate(69.3219, 10.6243)">
<path transform="scale(0.0040, -0.0040)" d="M218 136c66 0 108 -36 108 -89c0 -89 -113 -183 -218 -183c-66 0 -108 36 -108 89c0 89 113 183 218 183z" fill="currentColor"/>
</g>
</a>
<a style="color:inherit;" xlink:href="textedit:///Users/landlessness/Documents/git/homeymusic/journal/a_field_theory_of_musical_harmony/_music%20engravings/0_3_4_12.ly:25:10:11">
<g transform="translate(69.3219, 9.6243)">
<path transform="scale(0.0040, -0.0040)" d="M218 136c66 0 108 -36 108 -89c0 -89 -113 -183 -218 -183c-66 0 -108 36 -108 89c0 89 113 183 218 183z" fill="currentColor"/>
</g>
</a>
<a style="color:inherit;" xlink:href="textedit:///Users/landlessness/Documents/git/homeymusic/journal/a_field_theory_of_musical_harmony/_music%20engravings/0_3_4_12.ly:25:14:15">
<g transform="translate(69.3219, 7.1243)">
<path transform="scale(0.0040, -0.0040)" d="M218 136c66 0 108 -36 108 -89c0 -89 -113 -183 -218 -183c-66 0 -108 36 -108 89c0 89 113 183 218 183z" fill="currentColor"/>
</g>
</a>
<g transform="translate(70.5611, 7.6243)">
<rect x="-0.0650" y="-3.6667" width="0.1300" height="6.4806" ry="0.0400" fill="currentColor"/>
</g>
<g transform="translate(68.1719, 9.6243)">
<path transform="scale(0.0040, -0.0040)" d="M27 41l-1 -66v-11c0 -22 1 -44 4 -66c45 38 93 80 93 139c0 33 -14 67 -43 67c-31 0 -52 -30 -53 -63zM-15 -138l-12 595c8 5 18 8 27 8s19 -3 27 -8l-7 -345c25 21 58 34 91 34c52 0 89 -48 89 -102c0 -80 -86 -117 -147 -169c-15 -13 -24 -38 -45 -38
c-13 0 -23 11 -23 25z" fill="currentColor"/>
</g>
<a style="color:inherit;" xlink:href="textedit:///Users/landlessness/Documents/git/homeymusic/journal/a_field_theory_of_musical_harmony/_music%20engravings/0_3_4_12.ly:15:14:15">
<g transform="translate(42.4519, 7.1243)">
<path transform="scale(0.0040, -0.0040)" d="M218 136c66 0 108 -36 108 -89c0 -89 -113 -183 -218 -183c-66 0 -108 36 -108 89c0 89 113 183 218 183z" fill="currentColor"/>
</g>
</a>
<a style="color:inherit;" xlink:href="textedit:///Users/landlessness/Documents/git/homeymusic/journal/a_field_theory_of_musical_harmony/_music%20engravings/0_3_4_12.ly:26:7:8">
<g transform="translate(72.3242, 10.6243)">
<path transform="scale(0.0040, -0.0040)" d="M218 136c66 0 108 -36 108 -89c0 -89 -113 -183 -218 -183c-66 0 -108 36 -108 89c0 89 113 183 218 183z" fill="currentColor"/>
</g>
</a>
<a style="color:inherit;" xlink:href="textedit:///Users/landlessness/Documents/git/homeymusic/journal/a_field_theory_of_musical_harmony/_music%20engravings/0_3_4_12.ly:26:10:11">
<g transform="translate(72.3242, 9.6243)">
<path transform="scale(0.0040, -0.0040)" d="M218 136c66 0 108 -36 108 -89c0 -89 -113 -183 -218 -183c-66 0 -108 36 -108 89c0 89 113 183 218 183z" fill="currentColor"/>
</g>
</a>
<a style="color:inherit;" xlink:href="textedit:///Users/landlessness/Documents/git/homeymusic/journal/a_field_theory_of_musical_harmony/_music%20engravings/0_3_4_12.ly:26:14:15">
<g transform="translate(72.3242, 7.1243)">
<path transform="scale(0.0040, -0.0040)" d="M218 136c66 0 108 -36 108 -89c0 -89 -113 -183 -218 -183c-66 0 -108 36 -108 89c0 89 113 183 218 183z" fill="currentColor"/>
</g>
</a>
<g transform="translate(73.5634, 7.6243)">
<rect x="-0.0650" y="-3.6667" width="0.1300" height="6.4806" ry="0.0400" fill="currentColor"/>
</g>
<a style="color:inherit;" xlink:href="textedit:///Users/landlessness/Documents/git/homeymusic/journal/a_field_theory_of_musical_harmony/_music%20engravings/0_3_4_12.ly:15:10:11">
<g transform="translate(42.4519, 9.6243)">
<path transform="scale(0.0040, -0.0040)" d="M218 136c66 0 108 -36 108 -89c0 -89 -113 -183 -218 -183c-66 0 -108 36 -108 89c0 89 113 183 218 183z" fill="currentColor"/>
</g>
</a>
<a style="color:inherit;" xlink:href="textedit:///Users/landlessness/Documents/git/homeymusic/journal/a_field_theory_of_musical_harmony/_music%20engravings/0_3_4_12.ly:15:7:8">
<g transform="translate(42.4519, 10.6243)">
<path transform="scale(0.0040, -0.0040)" d="M218 136c66 0 108 -36 108 -89c0 -89 -113 -183 -218 -183c-66 0 -108 36 -108 89c0 89 113 183 218 183z" fill="currentColor"/>
</g>
</a>
<a style="color:inherit;" xlink:href="textedit:///Users/landlessness/Documents/git/homeymusic/journal/a_field_theory_of_musical_harmony/_music%20engravings/0_3_4_12.ly:28:7:8">
<g transform="translate(76.6664, 10.6243)">
<path transform="scale(0.0040, -0.0040)" d="M218 136c66 0 108 -36 108 -89c0 -89 -113 -183 -218 -183c-66 0 -108 36 -108 89c0 89 113 183 218 183z" fill="currentColor"/>
</g>
</a>
<a style="color:inherit;" xlink:href="textedit:///Users/landlessness/Documents/git/homeymusic/journal/a_field_theory_of_musical_harmony/_music%20engravings/0_3_4_12.ly:28:10:11">
<g transform="translate(76.6664, 7.1243)">
<path transform="scale(0.0040, -0.0040)" d="M218 136c66 0 108 -36 108 -89c0 -89 -113 -183 -218 -183c-66 0 -108 36 -108 89c0 89 113 183 218 183z" fill="currentColor"/>
</g>
</a>
<g transform="translate(77.9056, 7.6243)">
<rect x="-0.0650" y="-3.6667" width="0.1300" height="6.4806" ry="0.0400" fill="currentColor"/>
</g>
<a style="color:inherit;" xlink:href="textedit:///Users/landlessness/Documents/git/homeymusic/journal/a_field_theory_of_musical_harmony/_music%20engravings/0_3_4_12.ly:29:7:8">
<g transform="translate(79.6687, 10.6243)">
<path transform="scale(0.0040, -0.0040)" d="M218 136c66 0 108 -36 108 -89c0 -89 -113 -183 -218 -183c-66 0 -108 36 -108 89c0 89 113 183 218 183z" fill="currentColor"/>
</g>
</a>
<a style="color:inherit;" xlink:href="textedit:///Users/landlessness/Documents/git/homeymusic/journal/a_field_theory_of_musical_harmony/_music%20engravings/0_3_4_12.ly:29:10:11">
<g transform="translate(79.6687, 7.1243)">
<path transform="scale(0.0040, -0.0040)" d="M218 136c66 0 108 -36 108 -89c0 -89 -113 -183 -218 -183c-66 0 -108 36 -108 89c0 89 113 183 218 183z" fill="currentColor"/>
</g>
</a>
<g transform="translate(80.9079, 7.6243)">
<rect x="-0.0650" y="-3.6667" width="0.1300" height="6.4806" ry="0.0400" fill="currentColor"/>
</g>
<a style="color:inherit;" xlink:href="textedit:///Users/landlessness/Documents/git/homeymusic/journal/a_field_theory_of_musical_harmony/_music%20engravings/0_3_4_12.ly:30:7:8">
<g transform="translate(82.6709, 10.6243)">
<path transform="scale(0.0040, -0.0040)" d="M314 65c0 23 -19 41 -42 41c-39 0 -204 -110 -231 -143c-7 -8 -10 -18 -10 -28c0 -23 19 -41 42 -41c39 0 203 110 230 143c7 8 11 18 11 28zM262 136c41 0 82 -14 82 -71c0 -26 -16 -112 -74 -151c-25 -17 -87 -50 -187 -50c-41 0 -83 14 -83 71c0 26 16 112 74 151
c25 17 88 50 188 50z" fill="currentColor"/>
</g>
</a>
<a style="color:inherit;" xlink:href="textedit:///Users/landlessness/Documents/git/homeymusic/journal/a_field_theory_of_musical_harmony/_music%20engravings/0_3_4_12.ly:30:10:11">
<g transform="translate(82.6709, 9.6243)">
<path transform="scale(0.0040, -0.0040)" d="M314 65c0 23 -19 41 -42 41c-39 0 -204 -110 -231 -143c-7 -8 -10 -18 -10 -28c0 -23 19 -41 42 -41c39 0 203 110 230 143c7 8 11 18 11 28zM262 136c41 0 82 -14 82 -71c0 -26 -16 -112 -74 -151c-25 -17 -87 -50 -187 -50c-41 0 -83 14 -83 71c0 26 16 112 74 151
c25 17 88 50 188 50z" fill="currentColor"/>
</g>
</a>
<a style="color:inherit;" xlink:href="textedit:///Users/landlessness/Documents/git/homeymusic/journal/a_field_theory_of_musical_harmony/_music%20engravings/0_3_4_12.ly:30:13:14">
<g transform="translate(82.6709, 7.1243)">
<path transform="scale(0.0040, -0.0040)" d="M314 65c0 23 -19 41 -42 41c-39 0 -204 -110 -231 -143c-7 -8 -10 -18 -10 -28c0 -23 19 -41 42 -41c39 0 203 110 230 143c7 8 11 18 11 28zM262 136c41 0 82 -14 82 -71c0 -26 -16 -112 -74 -151c-25 -17 -87 -50 -187 -50c-41 0 -83 14 -83 71c0 26 16 112 74 151
c25 17 88 50 188 50z" fill="currentColor"/>
</g>
</a>
<g transform="translate(83.9833, 7.6243)">
<rect x="-0.0650" y="-3.6667" width="0.1300" height="6.4077" ry="0.0400" fill="currentColor"/>
</g>
<a style="color:inherit;" xlink:href="textedit:///Users/landlessness/Documents/git/homeymusic/journal/a_field_theory_of_musical_harmony/_music%20engravings/0_3_4_12.ly:32:7:8">
<g transform="translate(88.2863, 10.6243)">
<path transform="scale(0.0040, -0.0040)" d="M218 136c66 0 108 -36 108 -89c0 -89 -113 -183 -218 -183c-66 0 -108 36 -108 89c0 89 113 183 218 183z" fill="currentColor"/>
</g>
</a>
<a style="color:inherit;" xlink:href="textedit:///Users/landlessness/Documents/git/homeymusic/journal/a_field_theory_of_musical_harmony/_music%20engravings/0_3_4_12.ly:32:10:11">
<g transform="translate(88.2863, 7.1243)">
<path transform="scale(0.0040, -0.0040)" d="M218 136c66 0 108 -36 108 -89c0 -89 -113 -183 -218 -183c-66 0 -108 36 -108 89c0 89 113 183 218 183z" fill="currentColor"/>
</g>
</a>
<g transform="translate(89.5255, 7.6243)">
<rect x="-0.0650" y="-3.6667" width="0.1300" height="6.4806" ry="0.0400" fill="currentColor"/>
</g>
<g transform="translate(40.5169, 7.6243)">
<rect x="-0.0650" y="-3.6667" width="0.1300" height="6.4806" ry="0.0400" fill="currentColor"/>
</g>
<a style="color:inherit;" xlink:href="textedit:///Users/landlessness/Documents/git/homeymusic/journal/a_field_theory_of_musical_harmony/_music%20engravings/0_3_4_12.ly:33:7:8">
<g transform="translate(91.2886, 10.6243)">
<path transform="scale(0.0040, -0.0040)" d="M218 136c66 0 108 -36 108 -89c0 -89 -113 -183 -218 -183c-66 0 -108 36 -108 89c0 89 113 183 218 183z" fill="currentColor"/>
</g>
</a>
<a style="color:inherit;" xlink:href="textedit:///Users/landlessness/Documents/git/homeymusic/journal/a_field_theory_of_musical_harmony/_music%20engravings/0_3_4_12.ly:33:10:11">
<g transform="translate(91.2886, 7.1243)">
<path transform="scale(0.0040, -0.0040)" d="M218 136c66 0 108 -36 108 -89c0 -89 -113 -183 -218 -183c-66 0 -108 36 -108 89c0 89 113 183 218 183z" fill="currentColor"/>
</g>
</a>
<g transform="translate(92.5278, 7.6243)">
<rect x="-0.0650" y="-3.6667" width="0.1300" height="6.4806" ry="0.0400" fill="currentColor"/>
</g>
<a style="color:inherit;" xlink:href="textedit:///Users/landlessness/Documents/git/homeymusic/journal/a_field_theory_of_musical_harmony/_music%20engravings/0_3_4_12.ly:14:10:11">
<g transform="translate(39.2777, 7.1243)">
<path transform="scale(0.0040, -0.0040)" d="M218 136c66 0 108 -36 108 -89c0 -89 -113 -183 -218 -183c-66 0 -108 36 -108 89c0 89 113 183 218 183z" fill="currentColor"/>
</g>
</a>
<a style="color:inherit;" xlink:href="textedit:///Users/landlessness/Documents/git/homeymusic/journal/a_field_theory_of_musical_harmony/_music%20engravings/0_3_4_12.ly:34:7:8">
<g transform="translate(94.4628, 10.6243)">
<path transform="scale(0.0040, -0.0040)" d="M314 65c0 23 -19 41 -42 41c-39 0 -204 -110 -231 -143c-7 -8 -10 -18 -10 -28c0 -23 19 -41 42 -41c39 0 203 110 230 143c7 8 11 18 11 28zM262 136c41 0 82 -14 82 -71c0 -26 -16 -112 -74 -151c-25 -17 -87 -50 -187 -50c-41 0 -83 14 -83 71c0 26 16 112 74 151
c25 17 88 50 188 50z" fill="currentColor"/>
</g>
</a>
<a style="color:inherit;" xlink:href="textedit:///Users/landlessness/Documents/git/homeymusic/journal/a_field_theory_of_musical_harmony/_music%20engravings/0_3_4_12.ly:34:10:11">
<g transform="translate(94.4628, 9.6243)">
<path transform="scale(0.0040, -0.0040)" d="M314 65c0 23 -19 41 -42 41c-39 0 -204 -110 -231 -143c-7 -8 -10 -18 -10 -28c0 -23 19 -41 42 -41c39 0 203 110 230 143c7 8 11 18 11 28zM262 136c41 0 82 -14 82 -71c0 -26 -16 -112 -74 -151c-25 -17 -87 -50 -187 -50c-41 0 -83 14 -83 71c0 26 16 112 74 151
c25 17 88 50 188 50z" fill="currentColor"/>
</g>
</a>
<a style="color:inherit;" xlink:href="textedit:///Users/landlessness/Documents/git/homeymusic/journal/a_field_theory_of_musical_harmony/_music%20engravings/0_3_4_12.ly:34:14:15">
<g transform="translate(94.4628, 7.1243)">
<path transform="scale(0.0040, -0.0040)" d="M314 65c0 23 -19 41 -42 41c-39 0 -204 -110 -231 -143c-7 -8 -10 -18 -10 -28c0 -23 19 -41 42 -41c39 0 203 110 230 143c7 8 11 18 11 28zM262 136c41 0 82 -14 82 -71c0 -26 -16 -112 -74 -151c-25 -17 -87 -50 -187 -50c-41 0 -83 14 -83 71c0 26 16 112 74 151
c25 17 88 50 188 50z" fill="currentColor"/>
</g>
</a>
<g transform="translate(95.7751, 7.6243)">
<rect x="-0.0650" y="-3.6667" width="0.1300" height="6.4077" ry="0.0400" fill="currentColor"/>
</g>
<g transform="translate(93.3128, 9.6243)">
<path transform="scale(0.0040, -0.0040)" d="M27 41l-1 -66v-11c0 -22 1 -44 4 -66c45 38 93 80 93 139c0 33 -14 67 -43 67c-31 0 -52 -30 -53 -63zM-15 -138l-12 595c8 5 18 8 27 8s19 -3 27 -8l-7 -345c25 21 58 34 91 34c52 0 89 -48 89 -102c0 -80 -86 -117 -147 -169c-15 -13 -24 -38 -45 -38
c-13 0 -23 11 -23 25z" fill="currentColor"/>
</g>
<a style="color:inherit;" xlink:href="textedit:///Users/landlessness/Documents/git/homeymusic/journal/a_field_theory_of_musical_harmony/_music%20engravings/0_3_4_12.ly:14:7:8">
<g transform="translate(39.2777, 10.6243)">
<path transform="scale(0.0040, -0.0040)" d="M218 136c66 0 108 -36 108 -89c0 -89 -113 -183 -218 -183c-66 0 -108 36 -108 89c0 89 113 183 218 183z" fill="currentColor"/>
</g>
</a>
<a style="color:inherit;" xlink:href="textedit:///Users/landlessness/Documents/git/homeymusic/journal/a_field_theory_of_musical_harmony/_music%20engravings/0_3_4_12.ly:9:7:8">
<g transform="translate(25.9286, 10.6243)">
<path transform="scale(0.0040, -0.0040)" d="M218 136c66 0 108 -36 108 -89c0 -89 -113 -183 -218 -183c-66 0 -108 36 -108 89c0 89 113 183 218 183z" fill="currentColor"/>
</g>
</a>
<a style="color:inherit;" xlink:href="textedit:///Users/landlessness/Documents/git/homeymusic/journal/a_field_theory_of_musical_harmony/_music%20engravings/0_3_4_12.ly:9:10:11">
<g transform="translate(25.9286, 7.1243)">
<path transform="scale(0.0040, -0.0040)" d="M218 136c66 0 108 -36 108 -89c0 -89 -113 -183 -218 -183c-66 0 -108 36 -108 89c0 89 113 183 218 183z" fill="currentColor"/>
</g>
</a>
<g transform="translate(27.1678, 7.6243)">
<rect x="-0.0650" y="-3.6667" width="0.1300" height="6.4806" ry="0.0400" fill="currentColor"/>
</g>
<a style="color:inherit;" xlink:href="textedit:///Users/landlessness/Documents/git/homeymusic/journal/a_field_theory_of_musical_harmony/_music%20engravings/0_3_4_12.ly:10:7:8">
<g transform="translate(28.9309, 10.6243)">
<path transform="scale(0.0040, -0.0040)" d="M218 136c66 0 108 -36 108 -89c0 -89 -113 -183 -218 -183c-66 0 -108 36 -108 89c0 89 113 183 218 183z" fill="currentColor"/>
</g>
</a>
<a style="color:inherit;" xlink:href="textedit:///Users/landlessness/Documents/git/homeymusic/journal/a_field_theory_of_musical_harmony/_music%20engravings/0_3_4_12.ly:10:10:11">
<g transform="translate(28.9309, 9.6243)">
<path transform="scale(0.0040, -0.0040)" d="M218 136c66 0 108 -36 108 -89c0 -89 -113 -183 -218 -183c-66 0 -108 36 -108 89c0 89 113 183 218 183z" fill="currentColor"/>
</g>
</a>
<a style="color:inherit;" xlink:href="textedit:///Users/landlessness/Documents/git/homeymusic/journal/a_field_theory_of_musical_harmony/_music%20engravings/0_3_4_12.ly:10:13:14">
<g transform="translate(28.9309, 7.1243)">
<path transform="scale(0.0040, -0.0040)" d="M218 136c66 0 108 -36 108 -89c0 -89 -113 -183 -218 -183c-66 0 -108 36 -108 89c0 89 113 183 218 183z" fill="currentColor"/>
</g>
</a>
<g transform="translate(30.1701, 7.6243)">
<rect x="-0.0650" y="-3.6667" width="0.1300" height="6.4806" ry="0.0400" fill="currentColor"/>
</g>
<a style="color:inherit;" xlink:href="textedit:///Users/landlessness/Documents/git/homeymusic/journal/a_field_theory_of_musical_harmony/_music%20engravings/0_3_4_12.ly:11:7:8">
<g transform="translate(31.9331, 10.6243)">
<path transform="scale(0.0040, -0.0040)" d="M218 136c66 0 108 -36 108 -89c0 -89 -113 -183 -218 -183c-66 0 -108 36 -108 89c0 89 113 183 218 183z" fill="currentColor"/>
</g>
</a>
<a style="color:inherit;" xlink:href="textedit:///Users/landlessness/Documents/git/homeymusic/journal/a_field_theory_of_musical_harmony/_music%20engravings/0_3_4_12.ly:11:10:11">
<g transform="translate(31.9331, 9.6243)">
<path transform="scale(0.0040, -0.0040)" d="M218 136c66 0 108 -36 108 -89c0 -89 -113 -183 -218 -183c-66 0 -108 36 -108 89c0 89 113 183 218 183z" fill="currentColor"/>
</g>
</a>
<a style="color:inherit;" xlink:href="textedit:///Users/landlessness/Documents/git/homeymusic/journal/a_field_theory_of_musical_harmony/_music%20engravings/0_3_4_12.ly:11:13:14">
<g transform="translate(31.9331, 7.1243)">
<path transform="scale(0.0040, -0.0040)" d="M218 136c66 0 108 -36 108 -89c0 -89 -113 -183 -218 -183c-66 0 -108 36 -108 89c0 89 113 183 218 183z" fill="currentColor"/>
</g>
</a>
<g transform="translate(33.1724, 7.6243)">
<rect x="-0.0650" y="-3.6667" width="0.1300" height="6.4806" ry="0.0400" fill="currentColor"/>
</g>
<a style="color:inherit;" xlink:href="textedit:///Users/landlessness/Documents/git/homeymusic/journal/a_field_theory_of_musical_harmony/_music%20engravings/0_3_4_12.ly:13:7:8">
<g transform="translate(36.2754, 10.6243)">
<path transform="scale(0.0040, -0.0040)" d="M218 136c66 0 108 -36 108 -89c0 -89 -113 -183 -218 -183c-66 0 -108 36 -108 89c0 89 113 183 218 183z" fill="currentColor"/>
</g>
</a>
<a style="color:inherit;" xlink:href="textedit:///Users/landlessness/Documents/git/homeymusic/journal/a_field_theory_of_musical_harmony/_music%20engravings/0_3_4_12.ly:13:10:11">
<g transform="translate(36.2754, 7.1243)">
<path transform="scale(0.0040, -0.0040)" d="M218 136c66 0 108 -36 108 -89c0 -89 -113 -183 -218 -183c-66 0 -108 36 -108 89c0 89 113 183 218 183z" fill="currentColor"/>
</g>
</a>
<g transform="translate(37.5146, 7.6243)">
<rect x="-0.0650" y="-3.6667" width="0.1300" height="6.4806" ry="0.0400" fill="currentColor"/>
</g>
<g transform="translate(34.5701, 165.1202)">
<a xlink:href="https://lilypond.org/">
<rect x="0.0000" y="-0.4748" width="50.3614" height="2.0024" fill="none" stroke="none" stroke-width="0.0"/>
</a>
</g>
<g transform="translate(34.5701, 165.1202)">
<text font-family="serif" font-size="2.2001" text-anchor="start" fill="currentColor">
<tspan>Music engraving by LilyPond 2.22.2—www.lilypond.org</tspan>
</text>
</g>
</svg>
